<svg viewBox="0 0 24 24" fill="none" xmlns="http://www.w3.org/2000/svg">
  <path
    d="M24 12C24 18.6223 18.6223 24 12 24C5.37768 24 0 18.6223 0 12C0 5.37769 5.37768 0 12 0C18.6223 0 24 5.37769 24 12Z"
    fill="#0EA2FF"/>
  <path
    d="M21.182 4.27397C18.9746 1.66732 15.6869 0 12 0C5.37768 0 0 5.37769 0 12C0 13.3855 0.234825 14.7241 0.681009 15.9687C7.42073 11.953 14.2544 8.05479 21.182 4.27397Z"
    fill="#74CAFF"/>
  <path
    d="M13.3846 23.9303C16.1322 23.6015 18.6214 22.3569 20.4766 20.5017C18.598 21.3941 16.7428 22.3099 14.8641 23.2258C14.3709 23.4606 13.8778 23.6955 13.3846 23.9303Z"
    fill="#53BEFF"/>
  <path
    d="M20.9225 11.813C20.9225 16.8619 16.8364 20.948 11.7875 20.948C6.73858 20.948 2.65247 16.8619 2.65247 11.813C2.65247 6.76409 6.73858 2.67798 11.7875 2.67798C16.8364 2.67798 20.9225 6.76409 20.9225 11.813Z"
    fill="#1D5476"/>
  <path
    d="M21.1827 12.1887C21.1827 17.1672 17.1436 21.1828 12.1886 21.1828C7.21011 21.1828 3.19446 17.1437 3.19446 12.1887C3.19446 7.21023 7.23359 3.19458 12.1886 3.19458C17.1671 3.19458 21.1827 7.21023 21.1827 12.1887Z"
    fill="#1994E2"/>
  <path
    d="M6.64601 16.0304C6.89747 16.5818 7.6438 16.8164 8.29698 16.8666C9.41941 16.9518 10.0935 17.0305 10.9978 17.6547C11.6763 18.1216 11.8228 18.8952 12.8865 18.7313C15.0379 18.3985 13.9802 16.6003 13.4487 15.285C13.034 14.2571 13.501 10.3356 11.2776 11.6623C10.5729 12.082 10.31 12.831 9.81718 13.4386C9.15024 14.2498 8.35492 14.2411 7.42481 14.5662C6.72439 14.7992 6.26954 15.2007 6.64601 16.0304Z"
    fill="#185981"/>
  <path
    d="M14.85 14.6422C14.828 14.5964 14.8128 14.5468 14.7976 14.4972C14.5919 13.7532 15.9222 12.4428 16.4911 12.0833C16.6556 11.9795 16.8573 11.8857 17.0621 11.9293C17.3574 11.9972 17.4817 12.3209 17.5174 12.5923C17.6213 13.4399 17.3151 14.3082 16.694 14.9269C16.1054 15.5087 15.1525 15.3438 14.85 14.6422Z"
    fill="#185981"/>
  <path
    d="M16.0528 7.78188C16.5978 9.08945 16.2368 10.7172 15.1913 11.6658C15.0559 11.7888 14.9059 11.9022 14.7252 11.939C14.2846 12.0313 13.8821 11.5759 13.8479 11.1285C13.8137 10.681 14.03 10.2553 14.2393 9.85612C14.5818 9.21388 14.9191 8.57021 15.2603 7.93328C15.373 7.72451 15.5156 7.48959 15.7485 7.44969C15.9813 7.40978 16.2134 7.75671 16.0138 7.88524L16.0528 7.78188Z"
    fill="#185981"/>
  <path
    d="M12.2403 9.3362C12.2968 9.06107 12.288 8.77412 12.3512 8.49511C12.4942 7.89603 12.9785 7.40569 13.1588 6.81661C13.2166 6.62154 13.2192 6.37747 13.0221 6.26194C12.7922 6.12048 12.4933 6.27927 12.2881 6.42904C11.4319 7.05287 10.5432 7.71346 10.0938 8.60593C9.9009 8.9867 9.79903 9.43177 9.96335 9.84019C10.53 11.2162 12.0355 10.2944 12.2403 9.3362Z"
    fill="#185981"/>
  <path
    d="M7.11533 11.0735C7.08714 10.5821 7.06463 10.0694 7.24412 9.61107C7.42361 9.1527 7.865 8.75899 8.36082 8.8011C8.45545 8.80944 8.56176 8.838 8.62057 8.91641C8.68469 8.99625 8.67757 9.10817 8.67328 9.20948C8.64122 9.71314 8.58257 10.2097 8.50124 10.7058C8.43945 11.0649 8.26967 12.169 7.83653 12.2974C7.23856 12.467 7.14319 11.5022 7.11533 11.0735Z"
    fill="#185981"/>
<path d="M8.21817 8.29564C8.48522 7.78679 8.91776 7.36224 9.42644 7.10044C9.29875 7.40766 9.16963 7.72019 9.04052 8.03272C9.00718 8.11483 8.97383 8.19695 8.90612 8.25844C8.7246 8.42598 8.21817 8.29564 8.21817 8.29564Z" fill="#185981"/>
<path d="M16.3011 7.16586C16.4311 6.38113 16.3215 5.55482 15.9967 4.83008C15.9501 5.40952 15.9049 5.98365 15.8597 6.55778C15.8558 6.63642 15.849 6.72567 15.888 6.79306C15.9971 6.98174 16.3011 7.16586 16.3011 7.16586Z" fill="#185981"/>
<path d="M17.403 9.68237C17.2979 10.1607 17.1981 10.6405 17.0931 11.1189C17.0803 11.1667 17.0714 11.2212 17.092 11.2723C17.1614 11.4389 17.5119 11.3851 17.5037 11.565C17.5037 11.565 17.6633 10.2646 17.403 9.68237Z" fill="#185981"/>
<path d="M13.0527 5.83189C13.3392 5.35674 13.7289 4.94343 14.1837 4.62733C13.9939 5.06017 13.8095 5.49444 13.6197 5.92729C13.6045 5.96304 13.5864 6.00941 13.5552 6.04087C13.4683 6.13137 13.3032 6.10978 13.211 6.02811C13.115 5.93971 13.0527 5.83189 13.0527 5.83189Z" fill="#185981"/>
</svg>
