<svg viewBox="0 0 24 24" fill="none" xmlns="http://www.w3.org/2000/svg">
  <path
    d="M24 12C24 18.6223 18.6223 24 12 24C5.37768 24 0 18.6223 0 12C0 5.37769 5.37768 0 12 0C18.6223 0 24 5.37769 24 12Z"
    fill="#FD5D4E"/>
  <path
    d="M21.182 4.27397C18.9746 1.66732 15.6869 0 12 0C5.37768 0 0 5.37769 0 12C0 13.3855 0.234825 14.7241 0.681009 15.9687C7.42073 11.953 14.2544 8.0548 21.182 4.27397Z"
    fill="#FF887C"/>
  <path
    d="M13.3851 23.9305C16.1327 23.6018 18.6219 22.3571 20.4771 20.502C18.5984 21.3943 16.7432 22.3102 14.8646 23.226C14.3714 23.4609 13.8783 23.6957 13.3851 23.9305Z"
    fill="#FF887C"/>
  <path
    d="M20.9225 11.8135C20.9225 16.8624 16.8364 20.9485 11.7875 20.9485C6.73858 20.9485 2.65247 16.8624 2.65247 11.8135C2.65247 6.76458 6.73858 2.67847 11.7875 2.67847C16.8364 2.67847 20.9225 6.76458 20.9225 11.8135Z"
    fill="#9B2115"/>
  <path
    d="M21.1826 12.1885C21.1826 17.1669 17.1434 21.1826 12.1885 21.1826C7.20999 21.1826 3.19434 17.1434 3.19434 12.1885C3.19434 7.20999 7.23347 3.19434 12.1885 3.19434C17.1669 3.19434 21.1826 7.20999 21.1826 12.1885Z"
    fill="#F94433"/>
  <path
    d="M16.2992 10.9245H17.9018C17.8931 10.9505 17.8846 10.9763 17.876 11.002C17.7239 11.4603 17.5901 11.863 17.2804 12.2658C16.9299 12.7194 16.4885 12.9651 16.038 13.2158C15.7738 13.3629 15.5065 13.5117 15.2526 13.7052C15.0236 13.9015 14.7947 14.1305 14.6311 14.4903C14.4022 15.0138 14.206 15.8643 14.762 16.2896C15.1217 16.5513 15.6778 16.6168 16.1356 16.6495C15.6778 17.1729 15.2526 17.5328 14.5003 17.6309H13.8462C13.7971 17.6146 13.7562 17.5982 13.7154 17.5818C13.6745 17.5655 13.6336 17.5491 13.5845 17.5328L13.4537 17.4673L12.6361 17.0748L13.1594 17.8272L13.2575 17.9908C12.7015 18.0235 12.0473 17.958 11.4586 17.7945C10.3793 17.4673 9.8887 16.8131 9.59435 15.8643L9.52893 16.6168C8.67856 16.0933 8.15526 15.6026 7.95902 14.5885C7.8282 13.8688 7.95902 13.3781 8.22067 12.7892L7.89361 12.7565C7.53384 12.7238 7.14136 12.6256 6.78159 12.4948C6.68347 12.4948 6.61805 12.4621 6.55264 12.4293C6.16016 12.2658 5.76769 12.0368 5.40791 11.8078L5.3425 11.7751L5.27709 11.7096L4.75378 11.3171L5.37521 11.0226L10.6082 8.89621C10.7143 8.85495 10.8182 8.80945 10.9214 8.7643C11.3908 8.55879 11.844 8.36039 12.4071 8.60178L13.0939 8.89621C13.1594 8.92892 13.2902 8.99435 13.3883 8.99435C13.4386 8.99435 13.4889 8.99435 13.5392 8.98877C13.4428 9.12099 13.278 9.23365 13.0718 9.26312C12.8232 9.29863 11.9002 9.79579 11.7937 9.86682C11.7084 9.92364 11.0836 10.3285 10.6931 10.5415C11.3321 10.5415 11.9712 10.506 12.3972 10.364C12.8232 10.2219 13.3913 9.86682 13.7463 9.5117C13.8632 9.39476 13.9771 9.25971 14.095 9.11988C14.3101 8.86478 14.5386 8.59376 14.8236 8.38765L14.9255 8.34006L17.3131 7.2605L17.7056 7.09692C17.8037 7.42406 17.9018 7.75121 17.9345 8.11107C17.9672 8.34006 17.9672 8.63449 17.9345 8.89621C17.8477 9.53327 17.402 9.93965 16.9606 10.3422C16.9033 10.3944 16.8461 10.4466 16.7898 10.4992L16.2992 10.9245Z"
    fill="#9B2115"/>
</svg>
