<svg xmlns="http://www.w3.org/2000/svg" fill="none" viewBox="0 0 44 45">
<circle cx="22" cy="22.5" r="20" fill="#BC424B" stroke="#582C33" stroke-width="4" opacity=".3"/>
<path fill="#E44B55" d="M14.012 24.96h2.73v1.54h-7.28v-1.54h2.94v-6.538l-1.974.56-.392-1.372 2.576-.91h1.4v8.26Zm9.677-3.542c.998.532 1.498 1.32 1.498 2.366 0 .896-.332 1.605-.994 2.128-.663.513-1.559.77-2.688.77-1.139 0-2.04-.257-2.702-.77-.663-.523-.994-1.232-.994-2.128 0-1.064.504-1.853 1.512-2.366-.784-.504-1.176-1.2-1.176-2.086 0-.896.317-1.587.952-2.072.634-.495 1.437-.742 2.408-.742.97 0 1.768.247 2.394.742.634.485.952 1.176.952 2.072 0 .887-.388 1.582-1.162 2.086Zm-2.184-3.374c-.55 0-.98.117-1.288.35-.308.233-.462.57-.462 1.008 0 .42.154.751.462.994.317.243.746.364 1.288.364.532 0 .952-.121 1.26-.364.317-.243.476-.574.476-.994 0-.439-.154-.775-.462-1.008-.308-.233-.733-.35-1.274-.35Zm-1.554 6.72c.364.261.882.392 1.554.392s1.185-.13 1.54-.392c.354-.27.532-.649.532-1.134 0-.485-.178-.859-.532-1.12-.355-.27-.868-.406-1.54-.406s-1.19.135-1.554.406c-.355.261-.532.635-.532 1.12 0 .485.177.863.532 1.134Zm12.925-3.878v1.428H30.51v2.366h-1.43v-2.366h-2.366v-1.428h2.366V18.52h1.428v2.366h2.367Z"/>
</svg>
