<svg xmlns="http://www.w3.org/2000/svg" fill="none" viewBox="0 0 79 21">
<g clip-path="url(#astropay_svg__a)">
<path fill="#fff" d="M5.237.533 0 16.143h3.076l1.48-4.555H8.81l1.519 4.556h3.142L8.234.533H5.237Zm2.84 8.471H5.328l1.14-3.436c.078-.24.156-.466.222-.706.078.24.144.48.235.72l1.152 3.422Zm10.578.04c-1.414-.573-1.57-.84-1.57-1.252 0-.52.431-.852 1.125-.852.838 0 1.48.333 1.794.532l.602.387.798-2.478-.353-.24c-.694-.466-1.741-.732-2.802-.732-2.37 0-4.084 1.518-4.084 3.623 0 1.931 1.676 2.957 3.09 3.476 1.4.533 1.518.906 1.518 1.359 0 .852-.89.986-1.4.986-.812 0-1.69-.36-2.187-.653l-.602-.36-.786 2.531.38.226c.864.52 2.003.813 3.155.813 2.605 0 4.36-1.492 4.36-3.703 0-2.251-1.742-3.17-3.038-3.663Zm7.659-7.113-2.933.906v1.785h-1.57v2.57h1.583v5.102c0 1.425.288 2.438.864 3.117.563.64 1.427.986 2.409.986a5.55 5.55 0 0 0 1.833-.293l.392-.147-.157-2.584-.667.213a3.21 3.21 0 0 1-.917.107c-.353 0-.837 0-.837-1.452V7.193h2.657v-2.57h-2.645l-.012-2.692Zm9.792 2.584-.537-.066a3 3 0 0 0-.524-.04c-.93 0-1.78.386-2.435 1.065l-.026-.852h-2.749l.04.6c.052.878.09 1.904.09 3.21v7.725h2.973v-6.114c0-.293.026-.573.052-.786.222-1.199.956-1.944 1.938-1.944.235 0 .38 0 .51.026l.668.147v-2.97Zm5.42-.106c-3.312 0-5.63 2.49-5.63 6.074 0 3.476 2.24 5.914 5.447 5.914 2.722 0 5.642-1.905 5.642-6.087.026-3.477-2.226-5.901-5.46-5.901ZM44 10.363c0 2.011-1.074 3.476-2.54 3.476s-2.526-1.452-2.526-3.423c0-1.279.55-3.45 2.579-3.45C43.476 6.953 44 9.177 44 10.363Zm12.75-8.592C55.77.88 54.304.426 52.392.426c-1.283 0-2.5.093-3.613.293L48.32.8v15.358h2.945v-5.714c.301.026.616.04.917.04 1.99 0 3.678-.626 4.752-1.759.838-.865 1.257-2.038 1.257-3.49-.013-1.398-.51-2.623-1.44-3.463Zm-1.518 3.557c0 2.184-1.885 2.504-3.011 2.504-.38 0-.694-.013-.969-.053V3.09c.288-.04.681-.053 1.178-.053 1.283.013 2.802.413 2.802 2.29Zm11.992 7.765v-3.89c0-3.103-1.584-4.794-4.438-4.794-1.322 0-2.71.373-3.679.985l-.366.24.798 2.398.615-.426c.616-.427 1.506-.68 2.383-.68.59-.013 1.034.133 1.322.426.236.24.38.6.432 1.053-2.317.066-4.019.64-5.04 1.678-.72.72-1.086 1.652-1.086 2.757 0 1.758 1.256 3.557 3.678 3.557a4.442 4.442 0 0 0 2.763-.933l.078.68h2.815l-.092-.653c-.144-.626-.183-1.439-.183-2.398Zm-4.949.773c-.445 0-1.178-.16-1.178-1.239 0-.413.118-.732.38-.999.353-.346 1.112-.746 2.84-.786v1.239c0 .093-.013.253-.052.426-.222.626-.864 1.359-1.99 1.359Zm13.118-9.244-2.147 6.487-.157.493a4.887 4.887 0 0 0-.17-.467l-2.344-6.513H67.33l4.058 10.35.013.026a.83.83 0 0 1 .092.24c-.026.053-.066.16-.092.226-.354.773-.877 1.479-1.4 1.905l-.014.013c-.589.506-1.204.746-1.44.813l-.524.173.76 2.584.484-.093c.301-.053 1.349-.307 2.553-1.332 1.44-1.292 2.396-3.37 3.652-6.74l3.077-8.178-3.155.013Z"/>
<path fill="red" d="M10.852 4.835c1.912-1.985 5.159-3.17 8.68-3.17 1.375 0 2.71.173 3.967.533l.104.026 2.265-.692-1.02-.387C22.922.4 20.697 0 18.418 0c-3.312 0-6.388.812-8.705 2.291l-.25.16.957 2.837.431-.453Z"/>
</g>
<defs>
<clipPath id="astropay_svg__a">
<path fill="#fff" d="M0 0h79v21H0z"/>
</clipPath>
</defs>
</svg>
