<svg xmlns="http://www.w3.org/2000/svg" fill="none" viewBox="0 0 24 24">
<g clip-path="url(#BCH_svg__a)">
<path fill="#0AC18E" d="M23.64 14.903c-1.602 6.428-8.114 10.34-14.544 8.738C2.669 22.038-1.244 15.527.359 9.098 1.962 2.67 8.473-1.244 14.902.36c6.43 1.603 10.342 8.115 8.739 14.544Z"/>
<path fill="#fff" d="M15.518 7.44c-.704-1.455-2.238-1.437-3.992-.918l-.77-2.1-1.317.515.748 2.044c-.346.135-.698.28-1.047.424l-.754-2.058-1.317.514.768 2.099a47.86 47.86 0 0 1-.835.338l-.003-.007L5.181 9l.5 1.364s.967-.397.957-.374c.534-.208.818.025.964.265l.876 2.391c.037-.014.085-.031.142-.045l-.139.054 1.227 3.351c.036.172.033.47-.34.616.022.008-.958.374-.958.374l.297 1.628 1.715-.669c.32-.124.635-.241.944-.36l.779 2.123 1.316-.513-.769-2.1a54.12 54.12 0 0 0 1.057-.401l.765 2.091 1.318-.514-.776-2.12c2.171-.987 3.524-2.133 2.978-4.226-.44-1.685-1.494-2.102-2.859-1.905.626-.675.86-1.526.343-2.59Zm-.181 5.26c.582 1.586-2.287 2.498-3.18 2.847l-1.03-2.813c.894-.348 3.604-1.69 4.21-.035ZM13.27 8.97c.528 1.443-1.87 2.186-2.615 2.476l-.934-2.551c.744-.29 2.997-1.431 3.55.074Z"/>
</g>
<defs>
<clipPath id="BCH_svg__a">
<path fill="#fff" d="M0 0h24v24H0z"/>
</clipPath>
</defs>
</svg>
