<svg xmlns="http://www.w3.org/2000/svg" fill="none" viewBox="0 0 30 30">
<g clip-path="url(#BTC_svg__a)">
<path fill="#F7931A" d="M29.551 18.629C27.547 26.664 19.408 31.555 11.37 29.55 3.336 27.548-1.555 19.408.45 11.373 2.451 3.336 10.591-1.555 18.626.449c8.037 2.003 12.928 10.143 10.924 18.18Z"/>
<path fill="#fff" d="M22.71 12.638c.313-1.996-1.276-3.07-3.448-3.785l.705-2.705-1.72-.41-.686 2.633c-.453-.108-.917-.21-1.379-.31l.691-2.65L15.154 5l-.705 2.704a59.83 59.83 0 0 1-1.099-.248l.002-.008-2.372-.567-.458 1.758s1.277.28 1.25.298c.696.166.822.607.801.957l-.802 3.081c.048.012.11.029.179.055l-.182-.043-1.125 4.316c-.086.202-.302.506-.789.39.018.025-1.25-.298-1.25-.298l-.854 1.884 2.239.535c.416.1.824.204 1.226.302l-.712 2.736 1.719.41.705-2.706c.469.122.925.234 1.37.34l-.702 2.694 1.72.41.712-2.73c2.934.531 5.14.317 6.068-2.222.748-2.044-.037-3.224-1.58-3.993 1.123-.248 1.97-.955 2.196-2.417Zm-3.93 5.275c-.531 2.044-4.128.939-5.294.662l.944-3.624c1.166.278 4.906.83 4.35 2.962Zm.532-5.304c-.485 1.86-3.478.915-4.45.683l.857-3.287c.971.232 4.098.664 3.593 2.604Z"/>
</g>
<defs>
<clipPath id="BTC_svg__a">
<path fill="#fff" d="M0 0h30v30H0z"/>
</clipPath>
</defs>
</svg>
