<svg xmlns="http://www.w3.org/2000/svg" fill="none" viewBox="0 0 24 24">
<path fill="#0EA2FF" d="M24 12c0 6.622-5.378 12-12 12S0 18.622 0 12 5.378 0 12 0s12 5.378 12 12Z"/>
<path fill="#74CAFF" d="M21.182 4.274C18.975 1.667 15.687 0 12 0 5.378 0 0 5.378 0 12c0 1.386.235 2.724.681 3.969A625.022 625.022 0 0 1 21.182 4.274Z"/>
<path fill="#53BEFF" d="M13.385 23.93a12.063 12.063 0 0 0 7.092-3.428c-1.879.892-3.734 1.808-5.613 2.724l-1.48.704Z"/>
<path fill="#1D5476" d="M20.922 11.813a9.13 9.13 0 0 1-9.135 9.135 9.13 9.13 0 0 1-9.135-9.135 9.13 9.13 0 0 1 9.136-9.135 9.13 9.13 0 0 1 9.134 9.135Z"/>
<path fill="#1994E2" d="M21.183 12.189c0 4.978-4.04 8.994-8.994 8.994-4.979 0-8.995-4.04-8.995-8.994 0-4.979 4.04-8.994 8.995-8.994a8.98 8.98 0 0 1 8.994 8.994Z"/>
<path fill="#185981" d="M6.646 16.03c.251.552.998.786 1.651.837 1.122.085 1.796.163 2.7.788.68.467.826 1.24 1.89 1.076 2.15-.333 1.093-2.13.562-3.446-.415-1.028.052-4.95-2.171-3.623-.705.42-.968 1.169-1.46 1.777-.668.81-1.463.802-2.393 1.127-.7.233-1.155.635-.779 1.464Zm8.204-1.388a.998.998 0 0 1-.052-.145c-.206-.744 1.124-2.054 1.693-2.414.165-.104.366-.197.571-.154.295.068.42.392.455.663a2.83 2.83 0 0 1-.823 2.335c-.589.582-1.541.417-1.844-.285Zm1.203-6.86c.545 1.307.184 2.935-.862 3.884-.135.123-.285.236-.466.273-.44.092-.843-.363-.877-.81-.034-.448.182-.874.391-1.273.343-.642.68-1.286 1.021-1.923.113-.208.256-.443.489-.483.232-.04.464.307.265.435l.039-.103ZM12.24 9.336c.057-.275.048-.562.111-.84.143-.6.627-1.09.808-1.68.058-.194.06-.439-.137-.554-.23-.142-.529.017-.734.167-.856.624-1.745 1.284-2.194 2.177-.193.38-.295.826-.13 1.234.566 1.376 2.072.454 2.276-.504Zm-5.125 1.737c-.028-.49-.05-1.004.13-1.462.179-.458.62-.852 1.116-.81.094.008.2.037.26.115.064.08.057.192.052.293-.032.504-.09 1-.172 1.497-.062.359-.231 1.463-.664 1.591-.598.17-.694-.795-.722-1.224Zm1.103-2.777c.267-.51.7-.934 1.208-1.196l-.385.933a.581.581 0 0 1-.135.225c-.181.168-.688.038-.688.038Zm8.083-1.13c.13-.785.02-1.611-.304-2.336-.047.58-.092 1.154-.137 1.728-.004.078-.011.168.028.235.11.189.413.373.413.373Zm1.102 2.516c-.105.479-.205.958-.31 1.437a.24.24 0 0 0-.001.153c.07.167.42.113.412.293 0 0 .16-1.3-.101-1.883Zm-4.35-3.85a3.973 3.973 0 0 1 1.13-1.205c-.19.433-.373.867-.563 1.3-.015.036-.034.082-.065.114-.087.09-.252.069-.344-.013a.928.928 0 0 1-.158-.196Z"/>
</svg>
