<svg xmlns="http://www.w3.org/2000/svg" fill="none" viewBox="0 0 24 24">
<path fill="#FD5D4E" d="M24 12c0 6.622-5.378 12-12 12S0 18.622 0 12 5.378 0 12 0s12 5.378 12 12Z"/>
<path fill="#FF887C" d="M21.182 4.274C18.975 1.667 15.687 0 12 0 5.378 0 0 5.378 0 12c0 1.386.235 2.724.681 3.969A625.04 625.04 0 0 1 21.182 4.274ZM13.385 23.93a12.063 12.063 0 0 0 7.092-3.428c-1.879.892-3.734 1.808-5.612 2.724l-1.48.704Z"/>
<path fill="#9B2115" d="M20.922 11.813a9.13 9.13 0 0 1-9.135 9.135 9.13 9.13 0 0 1-9.135-9.135 9.13 9.13 0 0 1 9.136-9.135 9.13 9.13 0 0 1 9.134 9.136Z"/>
<path fill="#F94433" d="M21.183 12.188c0 4.979-4.04 8.995-8.995 8.995-4.978 0-8.994-4.04-8.994-8.995 0-4.978 4.04-8.994 8.994-8.994a8.98 8.98 0 0 1 8.995 8.994Z"/>
<path fill="#9B2115" d="M16.3 10.925h1.602l-.026.077c-.152.458-.286.861-.596 1.264-.35.453-.792.7-1.242.95a6.327 6.327 0 0 0-.785.49c-.23.196-.458.425-.622.784-.229.524-.425 1.374.131 1.8.36.261.916.327 1.374.36-.458.523-.883.883-1.636.98h-.654a2.158 2.158 0 0 1-.13-.048 2.294 2.294 0 0 0-.131-.05l-.131-.065-.818-.392.523.752.098.164a5.733 5.733 0 0 1-1.798-.197c-1.08-.327-1.57-.98-1.865-1.93l-.065.753c-.85-.524-1.374-1.014-1.57-2.029-.13-.72 0-1.21.262-1.799l-.327-.032a4.573 4.573 0 0 1-1.112-.262.472.472 0 0 1-.23-.066 7.744 7.744 0 0 1-1.144-.621l-.066-.033-.065-.065-.523-.393.621-.294 5.233-2.127c.106-.041.21-.087.313-.132.47-.205.923-.404 1.486-.162l.687.294c.065.033.196.098.294.098.05 0 .1 0 .151-.005a.704.704 0 0 1-.467.274c-.249.036-1.172.533-1.278.604-.086.057-.71.461-1.1.674.638 0 1.277-.035 1.703-.177.426-.142.994-.497 1.35-.852.116-.117.23-.252.348-.392.215-.255.444-.526.729-.732l.101-.048 2.388-1.08.393-.163c.098.327.196.654.229 1.014.032.23.032.523 0 .785-.087.637-.533 1.044-.974 1.446l-.171.157-.49.425Z"/>
</svg>
