<svg xmlns="http://www.w3.org/2000/svg" fill="none" viewBox="0 0 24 24">
<g fill="#C2A633" clip-path="url(#DOGE_svg__a)">
<path d="M12.288 7.908h-1.715v3.38h2.698v1.415h-2.698v3.38h1.799c.462 0 3.794.053 3.789-3.932-.006-3.985-3.232-4.243-3.873-4.243Z"/>
<path d="M12 0C5.373 0 0 5.373 0 12c0 6.628 5.373 12 12 12 6.628 0 12-5.372 12-12 0-6.627-5.372-12-12-12Zm.472 18.481H8.126v-5.777H6.594v-1.416h1.532V5.511h3.73c.882 0 6.726-.184 6.726 6.593 0 6.89-6.11 6.377-6.11 6.377Z"/>
</g>
<defs>
<clipPath id="DOGE_svg__a">
<path fill="#fff" d="M0 0h24v24H0z"/>
</clipPath>
</defs>
</svg>
