<svg xmlns="http://www.w3.org/2000/svg" fill="none" viewBox="0 0 57 57">
<g clip-path="url(#gaming-curacao-logo_svg__a)">
<path fill="#A21E5A" d="M7.993 23.307c-.31-.127-.599-.245-.877-.352-4.086 3.27-5.914 5.827-6.608 6.983A3.369 3.369 0 0 0 0 31.552c.053-.107.107-.223.171-.33.764-1.251 2.882-4.192 7.822-7.915Z"/>
<path fill="#BA1F61" d="M7.993 23.309C3.053 27.03.935 29.973.176 31.224a3.288 3.288 0 0 0-.176.33 2.003 2.003 0 0 0 0 .258c.087 2.522 3.006 2.941 3.723 3.003.18.023.363.034.534.054 12.992 1.456 19.217 7.125 19.217 7.125 3.754 3.208 7.143 5.143 10.096 6.268 3.575-11.852-17.076-21.52-25.577-24.953Z"/>
<path fill="#FBBA19" d="M36.878 8.272c1.13.073 2.248.26 3.34.557C58.053 6.41 56.641 24.047 56.641 24.047s-.127 1.628-.503 4.075c.022.098.054.182.076.278.568-3.282.76-5.635.76-5.635s1.605-19.98-20.096-14.493Z"/>
<path fill="#FEDF92" d="M56.138 28.141c.377-2.45.504-4.075.504-4.075S58.053 6.421 40.224 8.84c5.123 1.39 12.117 5.856 15.913 19.302Z"/>
<path fill="#5B1A52" d="M17.95 17.115c-.418-.18-.803-.34-1.166-.492-4.14 2.269-7.294 4.418-9.679 6.332.278.107.568.223.877.352a73.145 73.145 0 0 1 9.969-6.192Z"/>
<path fill="#681E5B" d="M17.95 17.115a72.253 72.253 0 0 0-9.957 6.192c8.501 3.434 29.152 13.101 25.581 24.971 6.482 2.472 10.759 1.018 11.828.568.171-.076.331-.138.503-.203a8.484 8.484 0 0 0 2.576-1.594c-3.828-16.79-22.564-26.5-30.53-29.934Z"/>
<path fill="#176EA3" d="M31.435 11.182c3.357-1.262 6.279-2.004 8.801-2.342a16.192 16.192 0 0 0-3.34-.557c-1.736.442-3.445.98-5.12 1.614-1.69.633-3.285 1.263-4.803 1.893.556.118 1.144.267 1.78.428.86-.341 1.751-.684 2.682-1.036Z"/>
<path fill="#3B92D0" d="M40.236 8.84c-2.523.34-5.444 1.09-8.802 2.342-.93.34-1.817.695-2.694 1.035 8.405 2.256 22.831 9.092 23.495 29.603a39.98 39.98 0 0 0 2.643-7.272 70.25 70.25 0 0 0 1.347-6.148c-.022-.098-.053-.182-.076-.278-3.807-13.426-10.8-17.893-15.913-19.282Z"/>
<path fill="#C4232E" d="M28.723 12.228c-.63-.171-1.218-.31-1.782-.427a108.828 108.828 0 0 0-10.157 4.834c.354.149.748.31 1.166.492 3.5-1.825 7.097-3.46 10.773-4.899Z"/>
<path fill="#ED1C24" d="M28.723 12.229a115.688 115.688 0 0 0-10.78 4.898c7.974 3.433 26.7 13.155 30.53 29.934 1.484-1.305 2.716-3.144 3.742-5.23-.652-20.523-15.08-27.358-23.492-29.603Z"/>
<path fill="#fff" d="M31.84 23.38a3.226 3.226 0 0 0-2.267-.856h-7.998a2.701 2.701 0 0 0-2.004.833 2.6 2.6 0 0 0-.781 1.895v8.015a2.535 2.535 0 0 0 .793 1.882 2.691 2.691 0 0 0 2.003.835h7.99a3.207 3.207 0 0 0 2.288-.855 2.45 2.45 0 0 0 .855-1.873v-4.42h-6.726v1.56h4.522v.705a3.859 3.859 0 0 1-.459 1.893c-.445.779-.984.94-1.358.94h-5.177a2.343 2.343 0 0 1-1.78-.813 2.894 2.894 0 0 1-.76-2.004v-4.008a2.558 2.558 0 0 1 .78-1.904 2.502 2.502 0 0 1 1.765-.683h5.239a1.603 1.603 0 0 1 1.242.619c.189.222.33.48.417.759h2.306v-.668a2.522 2.522 0 0 0-.89-1.853Zm14.214-.862h-8.886a2.55 2.55 0 0 0-1.926.833 2.654 2.654 0 0 0-.748 1.894v8.016a2.585 2.585 0 0 0 .759 1.881 2.508 2.508 0 0 0 1.904.835h8.886a2.543 2.543 0 0 0 1.926-.834 2.642 2.642 0 0 0 .748-1.893v-1.423h-2.17c-.103.487-.328.94-.653 1.316a2.17 2.17 0 0 1-1.69.824h-5.175a2.193 2.193 0 0 1-1.69-.813 2.97 2.97 0 0 1-.728-2.004v-4.034a2.65 2.65 0 0 1 .737-1.904 2.32 2.32 0 0 1 1.681-.683h5.175a2.262 2.262 0 0 1 1.679.705c.32.32.55.718.667 1.156h2.183v-1.167a2.611 2.611 0 0 0-.76-1.881 2.575 2.575 0 0 0-1.919-.824ZM50 23.746h-.375v-.89h-.512v-.333h1.4v.332H50v.89Zm.697.001v-1.23h.588l.363.791.374-.79h.587v1.229h-.34V22.71l-.481 1.038h-.278l-.481-1.038v1.038l-.332-.002Z"/>
</g>
<defs>
<clipPath id="gaming-curacao-logo_svg__a">
<path fill="#fff" d="M0 0h57v57H0z"/>
</clipPath>
</defs>
</svg>
