<svg xmlns="http://www.w3.org/2000/svg" xml:space="preserve" viewBox="0 0 530.28 530.28">
<path fill="#ffb92a" fill-rule="evenodd" d="M530.28 447.71c0 45.6-36.97 82.57-82.57 82.57H81.91C36.67 530.28 0 493.61 0 448.38V78.96C0 35.35 35.35 0 78.96 0h372.36c43.61 0 78.96 35.35 78.96 78.95v368.76z" clip-rule="evenodd"/>
<path fill="#2d2926" d="M50.03 206.39v134.76l-24.05 5.4V211.79l24.05-5.4zm63.67 17.38c-14.84 3.33-23.95 20.04-23.95 20.04v-12.56l-23.34 5.09v80.4c2.85-1.09 5.94-1.72 9.17-1.72 5.2 0 10.03 1.56 14.07 4.22v-39.25c.18-18.8 5.57-29.78 16.83-32.31 9.89-2.22 13.6 5.15 13.44 16.53v61.39l22.91-5.17.16-61.2c.2-29.97-11.89-39.37-29.29-35.46zm34.68-5.84 13.13-2.95v-18.86l23.22-5.17v18.82l16.53-3.72-.23 20.38-16.55 3.72-.12 51.03c.11 6.23 1.2 10.09 8.19 8.52 2.73-.61 4.91-1.3 7.4-2.25l.06 19.14c-5.8 2.75-9.3 3.86-14.07 4.93-13.28 3.07-24.74-5.57-24.74-23.22l.08-52.94-13.14 2.95.24-20.38zm80.86 38.59c.01 2.15-.05 3.91.3 5.98 1.74 10.34 6.82 18.37 17.27 16.03 9.6-2.15 12.79-8.53 14.63-15.57l24.33-5.46c-2.54 15.59-10.97 35.24-37.53 41.19-23.82 5.34-38.22-8.41-42.17-31.91-4.33-25.76 2.38-64.14 37.68-72.06 26.05-5.84 38.24 9.57 41.59 29.5 1.33 7.9 1.25 13.77.79 19.53l-56.89 12.77zm33.8-25.33c.06-1.77-.19-3.27-.38-4.4-1.42-8.46-6.08-15.03-16.36-12.72-10.63 2.38-15.87 11.36-16.84 24.65l33.58-7.53zm80.55-29.62c-16.17 3.83-23.97 15.1-24.06 37.2l-.21 42-23.2 5.21V184.74l22.39-5.02c.29 2.48.82 9.98.78 18.2 3.77-12.96 8.94-19.62 24.29-23.06v26.71zM426 256.08l-.13.03-23.29 5.26c-1.6-2.91-3.21-7.53-3.91-10.78-3.3 6.99-7.82 15.04-24.2 18.72-17.4 3.91-27.29-7.94-29.45-19.38-5.11-26.99 14.26-40.1 34.08-45.15 7.13-1.82 13.13-2.89 19.9-4.6l-.34-6.07c-.15-7.39-1.86-16.39-14.31-13.59-11.09 2.49-11.67 9.51-12.66 14.62l-23.71 5.32c.3-16.29 7.41-32.01 34.87-38.18 21.49-4.83 39.36 1.55 39.2 27.97v48.02s.57 8.1 1.49 12c.93 3.96 2.46 5.81 2.46 5.81zm-27.36-39.49c-5.8 1.3-10.68 2.79-15.17 4.39-12.54 5.16-16.77 11-15.21 19.24 1.06 5.62 5.12 9.21 12.63 7.52 16.03-3.6 17.43-18.77 17.7-29.57l.05-1.58zm111.05-12.89c-1.3 19.44-10.37 37.31-36.47 43.17-22.35 5.02-36.85-6.77-41.25-30.02-5.32-28.12 2.72-66.47 35.47-73.82 28.66-6.44 40.04 14.27 41.19 26.91L486.11 175c-1.59-7.46-5.26-14.65-15.67-12.31-16.38 3.68-17.75 32.13-14.81 47.69 2.55 13.5 8.64 18.38 16.99 16.51 7.68-1.72 12.08-7.6 13.85-17.96l23.22-5.23zM128.7 375.8l-32.84-22.35-.01 54.85c0 1.68-1.37 3.05-3.04 3.05-1.68 0-3.03-1.37-3.03-3.05 0-.59-.07-59.97-.07-67.22 0-7.77-6.31-14.1-14.08-14.1-7.8 0-14.1 6.33-14.1 14.1l.02 117.11c0 21.02 17.11 38.16 38.14 38.16h2.52c20.74 0 37.39-16.81 37.39-37.56l.02-61.8c0-8.13-4.49-16.26-10.92-21.19zm-95.29-17.46c-5.81 1.4-9.4 7.24-8 13.05s7.24 9.4 13.05 8l16.41-3.94v-22.27l-21.46 5.16zm0 28.69c-5.81 1.4-9.4 7.24-8 13.05s7.24 9.4 13.05 8l16.41-3.94v-22.27l-21.46 5.16zm-8 41.75c1.39 5.81 7.24 9.4 13.05 8l16.41-3.94v-22.27l-21.46 5.15c-5.81 1.4-9.39 7.25-8 13.06z"/>
</svg>
