<svg xmlns="http://www.w3.org/2000/svg" fill="none" viewBox="0 0 99 38">
<g clip-path="url(#itech_svg__a)">
<path fill="#407FC2" d="M.738 12.32c.073-.42.13-.826.217-1.218.896-4.135 3.28-7.11 6.994-9.04C9.856 1.047 11.909.481 14.047.263a24.993 24.993 0 0 1 2.08-.116h68.176c2.413 0 4.74.493 6.878 1.64 4.003 2.133 6.401 5.484 7.283 9.939.029.174.058.348.086.537v.058H.738Zm46.457-1.712v-5.89c.058.087.072.116.101.16 1.142 1.784 2.298 3.569 3.44 5.353.187.29.36.436.707.392.318-.029.636-.014.954-.014V2.57h-1.286v5.82a.376.376 0 0 1-.144-.16C49.81 6.4 48.64 4.572 47.484 2.744c-.087-.13-.173-.188-.332-.188-.361.014-.723 0-1.07 0h-.187v8.038c.433.014.852.014 1.3.014ZM59.84 7.445c0 .073.014.116.014.175v1.465c0 .13-.043.189-.159.232a3.312 3.312 0 0 1-1.633.174c-.867-.116-1.502-.566-1.85-1.364-.418-1-.418-2.017.044-3.003.361-.755.968-1.248 1.806-1.379a3.8 3.8 0 0 1 2.544.45c.13.073.245.16.404.247 0-.45-.014-.87 0-1.277.015-.189-.057-.261-.217-.334a5.198 5.198 0 0 0-2.615-.348c-1.46.16-2.543.914-3.179 2.25-.592 1.232-.578 2.51-.087 3.772.405 1.03 1.156 1.755 2.226 2.06 1.372.406 2.702.189 3.944-.493a.253.253 0 0 0 .087-.174v-3.54c0-.044-.014-.073-.014-.117h-2.948V7.46c.55-.015 1.084-.015 1.633-.015Zm-20.216 3.163V7.373h.535c.318 0 .607.101.824.348.187.218.346.464.505.711.42.682.824 1.378 1.229 2.06.057.087.115.131.216.131h1.272c.043 0 .087-.014.144-.014-.187-.32-.375-.61-.563-.9-.607-.929-1.098-1.93-1.85-2.771.058-.03.13-.073.188-.102 1.46-.769 1.619-2.946.275-3.83-.477-.32-1.012-.421-1.575-.421h-2.327c-.058 0-.115 0-.173.014v8.039c.419-.03.838-.03 1.3-.03ZM.666 25.148h98c-.029.319-.072.623-.101.928-.202 1.727-.621 3.38-1.402 4.919-1.69 3.337-4.407 5.267-8.048 5.905-.969.175-1.937.247-2.92.247-23.827 0-47.641 0-71.47-.014-2.311 0-4.594-.363-6.762-1.234-2.398-.972-4.335-2.51-5.62-4.788-.767-1.335-1.215-2.786-1.46-4.31-.087-.493-.13-.986-.203-1.48-.014-.058-.014-.116-.014-.174Zm69.866 9.837h.202c.665 0 1.315.015 1.98 0 .361-.014.737-.029 1.098-.102 1.33-.275 2.326-1 2.803-2.321.318-.87.304-1.77.058-2.655-.246-.914-.795-1.582-1.676-1.945-.405-.16-.853-.304-1.286-.333-1.04-.058-2.095-.058-3.136-.073-.014 0-.029.015-.058.015.015 2.452.015 4.918.015 7.414Zm-33.987-7.429v7.415h1.272v-2.946c.68-.116 1.243.044 1.604.653.043.073.101.16.159.232.404.653.81 1.292 1.214 1.945.058.087.115.13.217.13h1.401c-.823-1.146-1.46-2.365-2.34-3.424.072-.03.13-.073.201-.102 1.445-.754 1.402-2.786.232-3.511a2.318 2.318 0 0 0-1.257-.377c-.867-.015-1.749-.015-2.616-.015a.092.092 0 0 0-.087 0Zm31.761 1.16v-1.16h-4.118v7.415h4.278V33.81h-2.992v-2.032h2.616v-1.16h-2.616v-1.901h2.832Zm-38.104-1.16v7.415h4.291v-.987c0-.13-.028-.174-.173-.174h-2.832v-2.032h2.615v-1.16h-2.471c-.13 0-.173-.044-.173-.174v-1.596c0-.044.014-.088.014-.146h2.833v-1.16c-1.359.014-2.717.014-4.104.014Zm-2.124 1.596c0-.406-.015-.783 0-1.146.014-.174-.058-.247-.217-.305-.636-.232-1.286-.29-1.95-.261-1.475.073-2.63.711-3.31 2.031-.592 1.161-.592 2.366-.116 3.57.29.725.81 1.262 1.489 1.64.404.217.838.348 1.286.391.91.087 1.806.015 2.659-.392.115-.058.144-.116.144-.232-.014-.319 0-.653 0-.972 0-.043-.014-.087-.014-.145a.631.631 0 0 0-.145.087c-.636.406-1.33.551-2.066.537-1.142-.03-2.023-.726-2.254-1.828a5.045 5.045 0 0 1-.072-1.147c.086-1.204.838-2.075 1.965-2.307a3.39 3.39 0 0 1 2.167.276c.145.044.275.116.434.203Zm27.397 5.819V31.88h2.644v-1.16h-2.63v-2.003h2.847V27.57h-4.118v7.414c.404-.014.823-.014 1.257-.014Zm-10.288-6.269v6.254h1.286v-6.254h2.095v-1.16H43.09v1.16h2.096Zm17.296 5.166h-.852V28.63h.809v-1.088h-2.962v1.102h.852v5.238h-.737v1.089h2.89v-1.103Zm-12.947-6.326v1.102h.81v5.238h-.81v1.089h2.89v-1.089h-.766v-5.238h.766v-1.102h-2.89Z"/>
<path fill="#fff" d="M65.691 14.352h1.344v3.25c.044-.029.073-.029.087-.058 1.546-1.35 3.815-.61 4.234 1.393.217 1.016.144 2.031-.405 2.946-.664 1.117-2.11 1.61-3.294 1.102-.217-.087-.405-.232-.622-.348v.392h-1.344v-8.677Zm1.3 5.775c.015 0 .03 0 .059.015v.435c.014.522.23.943.679 1.219.81.507 1.85.116 2.182-.813a3.218 3.218 0 0 0 .13-1.61c-.087-.537-.332-.973-.853-1.19-.794-.32-1.705.058-1.994.87-.13.334-.144.711-.202 1.074Zm-23.639-5.775h1.329v3.236c.087-.073.13-.102.173-.145.708-.595 1.922-.726 2.731-.276.636.363.896.972.969 1.654.029.276.029.551.029.827v3.381h-1.359V19.59c0-.203-.029-.406-.058-.61-.13-.681-.563-1.044-1.401-.87-.578.116-.983.653-1.055 1.291-.015.102-.015.204-.015.32v3.308h-1.343v-8.677Zm-10.678 6.123c.043.87.607 1.451 1.43 1.523.665.044 1.272-.116 1.806-.507.13-.087.26-.189.405-.305a.548.548 0 0 1 .015.145v1.074c0 .101-.03.174-.116.232-.593.392-1.243.551-1.936.537-.376 0-.766-.03-1.127-.13-.709-.19-1.258-.64-1.547-1.307-.49-1.117-.52-2.249.044-3.337.708-1.378 2.442-1.915 3.786-1.204.433.232.751.566.968 1 .361.712.347 1.48.318 2.279h-4.046Zm2.687-1.204c-.014-.726-.505-1.205-1.213-1.19-.68 0-1.388.595-1.402 1.19h2.615Zm27.512-.16c-.015-.681-.347-1.03-.997-1.03-.636 0-1.2.218-1.69.61-.117.087-.232.188-.362.29 0-.073-.015-.116-.015-.16v-1.19c0-.058.044-.145.087-.174.91-.551 1.893-.71 2.919-.464.852.203 1.33.842 1.416 1.785.015.16.029.319.029.493v3.773h-1.358v-.48a3.914 3.914 0 0 1-.203.16c-.722.566-1.98.61-2.73.102-1.056-.726-.983-2.438.13-3.12.375-.232.809-.333 1.242-.391a48.88 48.88 0 0 1 1.532-.204Zm-.015 1.147c-.188.029-.39.043-.578.072-.39.073-.794.13-1.185.233a.748.748 0 0 0-.39.275.733.733 0 0 0 .463 1.132c1.04.218 1.878-.58 1.69-1.712Zm-34.375 2.785h-1.387V16.05H24.77v-1.248h6.04v1.233h-2.327v7.008Zm43.827-1.77c.087.073.173.117.26.19.607.449 1.3.623 2.052.492.101-.014.217-.058.318-.101a.483.483 0 0 0 .13-.77 1.862 1.862 0 0 0-.506-.318c-.433-.203-.881-.349-1.3-.566-.448-.218-.795-.566-.896-1.088-.16-.755.13-1.422.794-1.829.636-.377 1.33-.464 2.038-.377.332.044.665.16.983.247.043.014.115.087.115.13.015.436 0 .87 0 1.335a4.615 4.615 0 0 1-.274-.174 2.427 2.427 0 0 0-1.633-.377 1.115 1.115 0 0 0-.477.174c-.29.174-.304.566-.043.784.115.101.26.174.404.232.405.174.81.304 1.2.508.26.13.52.29.708.507.679.74.476 1.901-.405 2.453-.636.391-1.344.464-2.066.42a3.16 3.16 0 0 1-1.3-.348c-.044-.029-.117-.102-.117-.145-.014-.435 0-.885 0-1.32-.014 0 0-.015.015-.059Zm-16.735.523h3.266v1.248h-4.624v-8.228h1.358v6.98Zm-13.335-.479v1.291c0 .058-.073.131-.13.174-.593.334-1.258.436-1.922.392-1.691-.116-2.775-1.393-2.717-3.163.043-1.074.419-1.988 1.33-2.583 1.054-.682 2.181-.696 3.337-.232.044.015.116.087.116.13.014.45 0 .886 0 1.38a3.911 3.911 0 0 1-.361-.247 2.169 2.169 0 0 0-1.518-.363c-.722.101-1.184.537-1.416 1.219a2.58 2.58 0 0 0-.029 1.48c.246.9 1.142 1.378 2.139 1.146.361-.087.68-.261.968-.479.044-.043.116-.087.202-.145ZM22.63 16.79h1.33v6.253h-1.33V16.79Zm-.028-2.046h1.416v1.276h-1.416v-1.276Z"/>
<path fill="#407FC2" d="M39.623 3.833c.477 0 .94-.044 1.387.014.578.073.882.406.925.914.043.624-.246 1.103-.78 1.292-.188.058-.39.087-.578.087-.318.014-.622 0-.954 0V3.833Zm32.195 29.991v-5.15c.578.028 1.142.028 1.706.086.26.03.505.102.75.203.593.233.969.668 1.142 1.292.16.61.174 1.219 0 1.828-.289 1.001-1.011 1.51-1.994 1.654-.534.087-1.054.073-1.604.087Zm-34.015-5.136c.477.014.939.014 1.387.058.491.058.766.333.838.769.072.478-.13.928-.55 1.131a1.557 1.557 0 0 1-.577.16c-.332.029-.65.014-.983 0-.043 0-.1-.058-.1-.087-.015-.653-.015-1.32-.015-2.032Z"/>
</g>
<defs>
<clipPath id="itech_svg__a">
<path fill="#fff" d="M.666.147h98v37h-98z"/>
</clipPath>
</defs>
</svg>
