<svg xmlns="http://www.w3.org/2000/svg" fill="none" viewBox="0 0 139 48">
<path fill="#14D378" d="M45.536 24.074a23.058 23.058 0 0 0 2.738 10.932l2.81-1.663a19.805 19.805 0 0 1-2.298-9.269c0-3.235.79-6.42 2.299-9.268l-2.811-1.663a23.058 23.058 0 0 0-2.738 10.931Z"/>
<path fill="#3D99E3" d="M56.78 4.2a22.691 22.691 0 0 0-7.944 7.88l2.81 1.663a19.347 19.347 0 0 1 6.755-6.664 18.966 18.966 0 0 1 9.06-2.599V1.143A22.323 22.323 0 0 0 56.78 4.2Z"/>
<path fill="#E44B55" d="M79.267 4.2a22.286 22.286 0 0 0-10.682-3.057V4.48c3.182.093 6.29.988 9.046 2.605a19.346 19.346 0 0 1 6.746 6.658l2.81-1.663a22.753 22.753 0 0 0-7.92-7.88Z"/>
<path fill="#FF9A08" d="M90.51 24a23.11 23.11 0 0 0-2.727-10.931l-2.81 1.662A19.809 19.809 0 0 1 87.272 24c0 3.235-.79 6.42-2.3 9.269l2.812 1.662A23.11 23.11 0 0 0 90.51 24Z"/>
<path fill="#14D378" d="M68.585 43.52v3.337a22.241 22.241 0 0 0 10.684-3.06 22.688 22.688 0 0 0 7.947-7.877l-2.811-1.663a19.362 19.362 0 0 1-6.758 6.663 18.98 18.98 0 0 1-9.062 2.6Z"/>
<path fill="#B829EA" d="M56.78 43.794a22.213 22.213 0 0 0 10.68 3.063V43.52a18.987 18.987 0 0 1-9.04-2.595 19.366 19.366 0 0 1-6.75-6.64l-2.812 1.664a22.628 22.628 0 0 0 7.921 7.845Z"/>
<path fill="#F2F6FA" d="m59.47 23.16 4.344 2.431 4.221-7.753 3.793 6.968 4.338-2.445-8.13-14.932-8.567 15.73Z"/>
<path fill="#F2F6FA" d="m52.905 35.176 5.351-9.788 7.22 4.041 15.05-8.446-15.05 14.193-5.303-2.942-1.6 2.942h-5.668ZM77.56 24.925l-3.687 3.639 3.6 6.612h5.668l-5.58-10.251ZM12.273 20.89a9.836 9.836 0 0 0-.9-.342 11.794 11.794 0 0 0-2.19-.552 6.562 6.562 0 0 0-1.078-.096c-.587 0-1.046.076-1.377.229-.33.152-.496.409-.496.77 0 .172.056.325.169.458.118.127.284.247.496.361.212.108.465.216.759.324.3.102.63.21.992.324l.684.219a8.07 8.07 0 0 1 1.545.647c.456.248.84.543 1.152.885.319.337.562.724.73 1.162.17.438.253.936.253 1.494 0 .654-.103 1.25-.309 1.79-.2.533-.515.99-.945 1.37-.431.381-.984.677-1.658.886-.668.21-1.474.314-2.416.314-.837 0-1.67-.07-2.5-.21a11.598 11.598 0 0 1-2.501-.732v-3.142c.805.42 1.585.727 2.34.924a9.28 9.28 0 0 0 2.249.285c.605 0 1.045-.098 1.32-.295a.944.944 0 0 0 .422-.818.882.882 0 0 0-.16-.534c-.1-.152-.265-.291-.496-.418a5.48 5.48 0 0 0-.89-.381 34.186 34.186 0 0 0-1.339-.448 7.945 7.945 0 0 1-1.461-.6 4.724 4.724 0 0 1-1.152-.866 3.876 3.876 0 0 1-.768-1.19c-.18-.45-.271-.964-.271-1.542 0-.596.103-1.142.309-1.637.206-.495.521-.917.946-1.266.424-.356.961-.632 1.61-.828.656-.197 1.433-.295 2.332-.295.356 0 .734.015 1.133.047.4.032.806.08 1.218.143.418.064.83.146 1.236.248.406.101.79.222 1.152.361l-.14 2.951Zm3.605-3.493h5.114c.886 0 1.664.057 2.332.171a7.901 7.901 0 0 1 1.751.466 4.39 4.39 0 0 1 1.227.733c.33.286.593.6.787.943.2.336.34.698.42 1.085.082.387.123.787.123 1.2 0 .349-.04.698-.122 1.047a3.545 3.545 0 0 1-1.124 1.885c-.306.272-.684.51-1.133.713-.443.204-.971.362-1.583.476a11.35 11.35 0 0 1-2.098.172h-.421a12.402 12.402 0 0 1-.497-.029l-.58-.038v4.636h-4.196v-13.46Zm4.196 6.759h.964c.45 0 .828-.054 1.134-.162a2 2 0 0 0 .74-.457 1.65 1.65 0 0 0 .402-.676c.081-.26.122-.54.122-.838 0-.476-.06-.87-.178-1.18a1.772 1.772 0 0 0-.506-.743 1.791 1.791 0 0 0-.758-.4 3.798 3.798 0 0 0-.956-.114h-.964v4.57Zm9.88-6.76h4.196v13.461h-4.196v-13.46Zm7.39 0h4.055l5.038 6.76v-6.76h3.203v13.461h-4.158l-4.964-7.159v7.16h-3.175V17.396Zm48.924 0h5.956c.943 0 1.773.128 2.491.381.718.248 1.314.578 1.789.99.48.407.843.87 1.086 1.39a3.61 3.61 0 0 1 .366 1.561c0 .413-.041.822-.122 1.229-.081.4-.225.78-.43 1.142a3.532 3.532 0 0 1-.853.97c-.356.286-.812.518-1.368.696.082.266.219.596.412.99.194.393.419.818.675 1.275.256.457.53.93.824 1.419.293.488.58.961.862 1.418H93.16a39.062 39.062 0 0 1-.824-2.066 15.674 15.674 0 0 1-.674-2.503h-1.199v4.57h-4.195V17.396Zm4.907 6.76c.475 0 .874-.064 1.199-.19.33-.128.6-.293.805-.496.206-.203.353-.431.44-.685a2.18 2.18 0 0 0 .14-.762c0-.501-.068-.91-.205-1.228a1.794 1.794 0 0 0-.562-.742 1.96 1.96 0 0 0-.824-.372 5.027 5.027 0 0 0-1.002-.095h-.703v4.57h.712Zm8.738-6.76h4.196v13.461h-4.196v-13.46Zm13.383 13.737c-.931 0-1.767-.136-2.51-.41a4.94 4.94 0 0 1-1.882-1.246c-.519-.559-.915-1.257-1.19-2.094-.274-.838-.412-1.819-.412-2.942v-7.044h4.195v7.063c0 .628.032 1.187.094 1.675.063.49.169.905.318 1.248.151.336.35.593.6.77.25.178.562.267.937.267.412 0 .743-.089.992-.266.256-.178.453-.435.59-.771.144-.343.241-.759.291-1.247.05-.49.075-1.048.075-1.676v-7.063h3.502v7.044c0 1.13-.109 2.113-.328 2.951-.218.838-.558 1.536-1.02 2.094a4.162 4.162 0 0 1-1.742 1.238c-.699.273-1.536.41-2.51.41Zm8.803-13.736h3.896l3.297 5.235 3.297-5.235h3.989v13.46h-4.29v-7.31l-3.09 5.32h-.908l-3.194-5.32v7.31h-2.997v-13.46Z"/>
</svg>
