<svg xmlns="http://www.w3.org/2000/svg" fill="none" viewBox="0 0 24 24">
<g clip-path="url(#LTC_svg__a)">
<ellipse cx="12" cy="12.4" fill="#fff" rx="10.4" ry="10.8"/>
<path fill="#345D9D" d="M12 .8C5.373.8 0 5.994 0 12.4S5.373 24 12 24s12-5.194 12-11.6C23.986 5.994 18.627.8 12 .8Zm.18 11.973-1.24 4.075h6.667c.235 0 .386.213.331.426l-.579 1.932a.457.457 0 0 1-.44.32H6.723l1.722-5.634-1.9.572.413-1.332 1.915-.572 2.424-7.911a.457.457 0 0 1 .441-.32h2.577c.234 0 .385.213.33.426l-2.053 6.686 1.902-.573-.414 1.346-1.9.559Z"/>
</g>
<defs>
<clipPath id="LTC_svg__a">
<path fill="#fff" d="M0 0h24v24H0z"/>
</clipPath>
</defs>
</svg>
