<svg xmlns="http://www.w3.org/2000/svg" fill="#8D98AE" viewBox="0 0 20 20">
<path d="M9.166 15h1.667v-1.667H9.166V15Zm.833-13.333A8.336 8.336 0 0 0 1.666 10c0 4.6 3.733 8.333 8.333 8.333S18.333 14.6 18.333 10s-3.734-8.333-8.334-8.333Zm0 15A6.675 6.675 0 0 1 3.333 10a6.676 6.676 0 0 1 6.666-6.667A6.676 6.676 0 0 1 16.666 10a6.675 6.675 0 0 1-6.667 6.667ZM10 5a3.332 3.332 0 0 0-3.333 3.333h1.667c0-.916.75-1.666 1.666-1.666.917 0 1.667.75 1.667 1.666 0 1.667-2.5 1.459-2.5 4.167h1.667c0-1.875 2.5-2.083 2.5-4.167A3.332 3.332 0 0 0 9.999 5Z"/>
</svg>
