<svg xmlns="http://www.w3.org/2000/svg" fill="none" viewBox="0 0 25 30">
<path fill="#1E435B" d="M12.5.417.833 5.72v7.954c0 7.358 4.978 14.239 11.667 15.91 6.689-1.671 11.667-8.552 11.667-15.91V5.72L12.5.417Z"/>
<path fill="#2DC5F5" d="M10.896 20.167a.974.974 0 0 1-.334-.057.774.774 0 0 1-.29-.19l-3.829-3.847a.831.831 0 0 1-.234-.638.905.905 0 0 1 .256-.638.842.842 0 0 1 .624-.246c.252 0 .46.082.623.246l3.184 3.2 7.548-7.584a.857.857 0 0 1 .635-.246c.26 0 .471.082.634.246a.865.865 0 0 1 .245.637.866.866 0 0 1-.244.638L11.52 19.92a.774.774 0 0 1-.29.19.974.974 0 0 1-.334.057Z"/>
</svg>
