<svg xmlns="http://www.w3.org/2000/svg" fill="none" viewBox="0 0 24 24">
<g clip-path="url(#USD_svg__a)">
<circle cx="12" cy="12" r="12" fill="#49381F"/>
<path fill="#FF9A08" d="M11.363 16.147c-.8-.019-1.857-.104-3.17-.256v-1.64c.72.124 1.259.205 1.614.243a9.823 9.823 0 0 0 1.556.128v-2.365h-.281C9.027 12.257 8 11.449 8 9.834v-.485c0-.731.267-1.282.8-1.653.533-.38 1.388-.603 2.563-.67V6h1.393v.998c1.066.047 1.99.109 2.77.185v1.525c-1.284-.152-2.207-.233-2.77-.242v2.109h.192c1.087 0 1.867.195 2.34.584.475.39.712.983.712 1.782v.427c0 .855-.277 1.501-.83 1.938-.553.428-1.358.69-2.414.784V18h-1.393v-1.853Zm0-7.667c-.435.028-.736.09-.904.185-.158.095-.237.257-.237.485v.798c0 .399.38.608 1.141.627V8.48Zm1.393 6.071c.671-.104 1.007-.347 1.007-.727v-.798c0-.237-.074-.418-.222-.541-.139-.124-.4-.2-.785-.228v2.294Z"/>
</g>
<defs>
<clipPath id="USD_svg__a">
<path fill="#fff" d="M0 0h24v24H0z"/>
</clipPath>
</defs>
</svg>
