<svg xmlns="http://www.w3.org/2000/svg" fill="none" viewBox="0 0 24 24">
<g clip-path="url(#USDT_svg__a)">
<path fill="#26A17B" d="M12 24c6.627 0 12-5.373 12-12S18.627 0 12 0 0 5.373 0 12s5.373 12 12 12Z"/>
<path fill="#fff" d="M13.462 12.909v-.002c-.082.006-.506.031-1.449.031a30.18 30.18 0 0 1-1.47-.031v.002c-2.898-.131-5.06-.648-5.06-1.268 0-.618 2.164-1.137 5.06-1.268v2.021c.19.014.734.047 1.484.047.9 0 1.35-.039 1.435-.047v-2.02c2.893.134 5.049.65 5.049 1.269 0 .618-2.158 1.135-5.05 1.268m0-2.746V8.357h4.037V5.6H6.51v2.757h4.036v1.808c-3.28.155-5.746.82-5.746 1.619 0 .798 2.467 1.463 5.746 1.62V19.2h2.918v-5.796c3.274-.155 5.736-.82 5.736-1.618 0-.797-2.462-1.464-5.736-1.619"/>
</g>
<defs>
<clipPath id="USDT_svg__a">
<path fill="#fff" d="M0 0h24v24H0z"/>
</clipPath>
</defs>
</svg>
