<?xml version="1.0" encoding="utf-8"?>
<!-- Generator: Adobe Illustrator 25.1.0, SVG Export Plug-In . SVG Version: 6.00 Build 0)  -->
<svg version="1.1" id="Layer_1" xmlns="http://www.w3.org/2000/svg" xmlns:xlink="http://www.w3.org/1999/xlink" x="0px" y="0px"
	 viewBox="0 0 50 50" style="enable-background:new 0 0 50 50;" xml:space="preserve">
<style type="text/css">
	.st0{fill:none;stroke:#FFFFFF;stroke-width:2;stroke-miterlimit:10;}
	.st1{fill:none;stroke:#FFFFFF;stroke-miterlimit:10;}
</style>
<path class="st0" d="M32,36"/>
<path class="st0" d="M33,36H3.3C2,36,1,35,1,33.7V5.3C1,4,2,3,3.3,3h41.5C46,3,47,4,47,5.3v15.4"/>
<path class="st0" d="M46.7,48H36.3C35,48,34,47,34,45.7V22.3c0-1.3,1-2.3,2.3-2.3h10.5c1.3,0,2.3,1,2.3,2.3v23.5
	C49,47,48,48,46.7,48z"/>
<rect x="21" y="36" class="st0" width="6" height="11"/>
<line class="st0" x1="15" y1="47" x2="33" y2="47"/>
<circle class="st1" cx="41.5" cy="44.5" r="1.5"/>
</svg>
