<?xml version="1.0" encoding="utf-8"?>
<!-- Generator: Adobe Illustrator 25.1.0, SVG Export Plug-In . SVG Version: 6.00 Build 0)  -->
<svg version="1.1" id="Layer_1" xmlns="http://www.w3.org/2000/svg" xmlns:xlink="http://www.w3.org/1999/xlink" x="0px" y="0px"
	 viewBox="0 0 50 50" style="enable-background:new 0 0 50 50;" xml:space="preserve">
<style type="text/css">
	.st0{fill:none;stroke:#FFFFFF;stroke-width:2;stroke-miterlimit:10;}
	.st1{opacity:0.53;fill:none;stroke:#FFFFFF;stroke-width:2;stroke-miterlimit:10;}
	.st2{opacity:0.31;fill:none;stroke:#FFFFFF;stroke-width:2;stroke-miterlimit:10;}
	.st3{opacity:0.17;fill:none;stroke:#FFFFFF;stroke-width:2;stroke-miterlimit:10;}
	.st4{opacity:0.27;fill:none;stroke:#FFFFFF;stroke-width:2;stroke-miterlimit:10;}
</style>
<path class="st0" d="M2.43,25c0,0,5.14-8.04,12.02-8.04S25,25,25,25s3.19,7.62,10.82,8s13.45-8,13.45-8"/>
<path class="st1" d="M25,25c0,0,3.19,4.62,10.82,5s13.45-5,13.45-5"/>
<path class="st2" d="M25,25c0,0,3.19,1.62,10.82,2s13.45-2,13.45-2"/>
<path class="st3" d="M25,25c0,0,3.19-1.38,10.82-1s13.45,1,13.45,1"/>
<path class="st1" d="M25,24.95c0,0-3.02-4.62-10.25-5c-7.23-0.38-12.75,5-12.75,5"/>
<path class="st2" d="M25,24.95c0,0-3.02-1.62-10.25-2c-7.23-0.38-12.75,2-12.75,2"/>
<path class="st3" d="M25,24.95c0,0-3.02,1.38-10.25,1c-7.23-0.38-12.75-1-12.75-1"/>
<path class="st4" d="M49.27,25"/>
</svg>
