<?xml version="1.0" encoding="utf-8"?>
<!-- Generator: Adobe Illustrator 25.1.0, SVG Export Plug-In . SVG Version: 6.00 Build 0)  -->
<svg version="1.1" id="Layer_1" xmlns="http://www.w3.org/2000/svg" xmlns:xlink="http://www.w3.org/1999/xlink" x="0px" y="0px"
	 viewBox="0 0 50 50" style="enable-background:new 0 0 50 50;" xml:space="preserve">
<style type="text/css">
	.st0{fill:none;stroke:#FFFFFF;stroke-width:2;stroke-miterlimit:10;}
</style>
<polyline class="st0" points="3,20.9 10.1,14.9 17.3,21 24.9,15 31.6,21 39.1,15 46.8,21.7 "/>
<path class="st0" d="M11,24.9"/>
<path class="st0" d="M3,34.2c0,0,1.7-3.7,4.6-3.7c1.7,0,4.1,3.7,4.1,3.7s1.8,2.8,3.9,2.8s4-3.5,4-3.5s1.7-3,4.5-3c1.7,0,4,3.7,4,3.7
	S29.7,37,32,37c2.8,0,4-2.7,4-2.7"/>
<path class="st0" d="M35.9,34.6c0,0,1.8-4.1,4.7-4.1c1.7,0,4.4,3.7,4.4,3.7s0.8,1.6,2.6,2.4"/>
</svg>
