<?xml version="1.0" encoding="utf-8"?>
<!-- Generator: Adobe Illustrator 25.1.0, SVG Export Plug-In . SVG Version: 6.00 Build 0)  -->
<svg version="1.1" id="Layer_1" xmlns="http://www.w3.org/2000/svg" xmlns:xlink="http://www.w3.org/1999/xlink" x="0px" y="0px"
	 viewBox="0 0 50 50" style="enable-background:new 0 0 50 50;" xml:space="preserve">
<style type="text/css">
	.st0{fill:none;stroke:#FFFFFF;stroke-width:2;stroke-miterlimit:10;}
</style>
<path class="st0" d="M47,29.59v14.82c0,1.43-1.16,2.59-2.59,2.59H5.59C4.16,47,3,45.84,3,44.41V29.59L25,20L47,29.59z"/>
<line class="st0" x1="14.41" y1="24.98" x2="3" y2="20"/>
<path class="st0" d="M14.41,24.98"/>
<path class="st0" d="M35.59,24.98"/>
<line class="st0" x1="47" y1="20" x2="35.59" y2="24.98"/>
<line class="st0" x1="17" y1="47" x2="17" y2="23"/>
<line class="st0" x1="33" y1="47" x2="33" y2="23"/>
<path class="st0" d="M3,30V7.71C3,5.66,4.66,4,6.71,4h36.58C45.34,4,47,5.66,47,7.71V30"/>
</svg>
