<?xml version="1.0" encoding="utf-8"?>
<!-- Generator: Adobe Illustrator 25.1.0, SVG Export Plug-In . SVG Version: 6.00 Build 0)  -->
<svg version="1.1" id="Layer_1" xmlns="http://www.w3.org/2000/svg" xmlns:xlink="http://www.w3.org/1999/xlink" x="0px" y="0px"
	 viewBox="0 0 512 512" style="enable-background:new 0 0 512 512;" xml:space="preserve">
<g>
	<path d="M31.5,48.8v414.3c0,7.9,6.4,14.3,14.3,14.3h420.3c7.9,0,14.3-6.4,14.3-14.3V48.8c0-7.9-6.4-14.3-14.3-14.3H45.8
		C37.9,34.5,31.5,40.9,31.5,48.8z M71.8,61.5h370.3c7.9,0,14.3,6.4,14.3,14.3V378l-57.3-99.2L323,146.7l-76.2,132.1L222.9,320
		l-0.7-1.2l-42.7-74l-42.7,74l-38.5,66.7H57.5V75.8C57.5,67.9,63.9,61.5,71.8,61.5z"/>
	<circle cx="139" cy="133" r="40.5"/>
</g>
</svg>
